<svg width="12" height="13" viewBox="0 0 12 13" fill="none" xmlns="http://www.w3.org/2000/svg">
<path d="M9.71233 1.70433C10.6762 2.66808 11.2275 3.9689 11.2496 5.33174C11.2717 6.69458 10.7629 8.0126 9.83075 9.00708L9.71233 9.12958L7.23725 11.6041C6.9232 11.9179 6.50159 12.1007 6.05784 12.1153C5.61409 12.1299 5.18137 11.9753 4.84733 11.6828L4.76334 11.6041L2.28767 9.129C1.3031 8.14443 0.749969 6.80906 0.749969 5.41667C0.749969 4.02427 1.3031 2.6889 2.28767 1.70433C3.27224 0.71976 4.60761 0.166634 6 0.166634C7.3924 0.166634 8.72776 0.71976 9.71233 1.70433ZM6 3.66667C5.77019 3.66667 5.54263 3.71193 5.33031 3.79988C5.11799 3.88782 4.92507 4.01673 4.76256 4.17923C4.60006 4.34173 4.47116 4.53465 4.38321 4.74697C4.29527 4.95929 4.25 5.18685 4.25 5.41667C4.25 5.64648 4.29527 5.87404 4.38321 6.08636C4.47116 6.29868 4.60006 6.4916 4.76256 6.6541C4.92507 6.81661 5.11799 6.94551 5.33031 7.03345C5.54263 7.1214 5.77019 7.16667 6 7.16667C6.46413 7.16667 6.90925 6.98229 7.23744 6.6541C7.56563 6.32591 7.75 5.88079 7.75 5.41667C7.75 4.95254 7.56563 4.50742 7.23744 4.17923C6.90925 3.85104 6.46413 3.66667 6 3.66667Z" fill="#747474"/>
</svg>
